RBDS021runT35_grf
version=1
nRows=34
nColumns=19
inDegrees=no
endheader
time	ground_force_r_vx	ground_force_r_vy	ground_force_r_vz	ground_force_r_px	ground_force_r_py	ground_force_r_pz	ground_force_r_mx	ground_force_r_my	ground_force_r_mz	ground_force_l_vx	ground_force_l_vy	ground_force_l_vz	ground_force_l_px	ground_force_l_py	ground_force_l_pz	ground_force_l_mx	ground_force_l_my	ground_force_l_mz
     14.99900000	      0.00000000	      0.00000000	      0.00000000	      0.00000000	      0.00000000	      0.00000000	      0.00000000	      0.00000000	      0.00000000	    164.91486233	   1228.98539367	     52.68783056	      1.82323982	      0.00000000	      0.93941254	      0.00000000	     11.31827321	      0.00000000
     15.00000000	      0.00000000	      0.00000000	      0.00000000	      0.00000000	      0.00000000	      0.00000000	      0.00000000	      0.00000000	      0.00000000	    167.57258264	   1212.42657474	     50.98582381	      1.81967975	      0.00000000	      0.93945136	      0.00000000	     11.23713933	      0.00000000
     15.00100000	      0.00000000	      0.00000000	      0.00000000	      0.00000000	      0.00000000	      0.00000000	      0.00000000	      0.00000000	      0.00000000	    169.71442915	   1194.90118328	     49.30391281	      1.81617998	      0.00000000	      0.93947775	      0.00000000	     11.14325546	      0.00000000
     15.00200000	      0.00000000	      0.00000000	      0.00000000	      0.00000000	      0.00000000	      0.00000000	      0.00000000	      0.00000000	      0.00000000	    171.85627566	   1177.37579182	     47.62200181	      1.81268021	      0.00000000	      0.93950415	      0.00000000	     11.04937160	      0.00000000
     15.00300000	      0.00000000	      0.00000000	      0.00000000	      0.00000000	      0.00000000	      0.00000000	      0.00000000	      0.00000000	      0.00000000	    173.99812217	   1159.85040036	     45.94009081	      1.80918044	      0.00000000	      0.93953054	      0.00000000	     10.95548773	      0.00000000
     15.00400000	      0.00000000	      0.00000000	      0.00000000	      0.00000000	      0.00000000	      0.00000000	      0.00000000	      0.00000000	      0.00000000	    175.78522464	   1141.75455959	     44.28595921	      1.80574165	      0.00000000	      0.93954710	      0.00000000	     10.85196734	      0.00000000
     15.00500000	      0.00000000	      0.00000000	      0.00000000	      0.00000000	      0.00000000	      0.00000000	      0.00000000	      0.00000000	      0.00000000	    177.39495509	   1123.37349418	     42.64571731	      1.80233335	      0.00000000	      0.93955875	      0.00000000	     10.74362869	      0.00000000
     15.00600000	      0.00000000	      0.00000000	      0.00000000	      0.00000000	      0.00000000	      0.00000000	      0.00000000	      0.00000000	      0.00000000	    179.00468554	   1104.99242877	     41.00547541	      1.79892505	      0.00000000	      0.93957040	      0.00000000	     10.63529003	      0.00000000
     15.00700000	      0.00000000	      0.00000000	      0.00000000	      0.00000000	      0.00000000	      0.00000000	      0.00000000	      0.00000000	      0.00000000	    180.43437353	   1086.36800586	     39.38514535	      1.79555821	      0.00000000	      0.93957650	      0.00000000	     10.52151210	      0.00000000
     15.00800000	      0.00000000	      0.00000000	      0.00000000	      0.00000000	      0.00000000	      0.00000000	      0.00000000	      0.00000000	      0.00000000	    181.50397657	   1067.25686794	     37.80463898	      1.79227430	      0.00000000	      0.93957153	      0.00000000	     10.39685563	      0.00000000
     15.00900000	      0.00000000	      0.00000000	      0.00000000	      0.00000000	      0.00000000	      0.00000000	      0.00000000	      0.00000000	      0.00000000	    182.57357962	   1048.14573003	     36.22413260	      1.78899039	      0.00000000	      0.93956656	      0.00000000	     10.27219915	      0.00000000
     15.01000000	      0.00000000	      0.00000000	      0.00000000	      0.00000000	      0.00000000	      0.00000000	      0.00000000	      0.00000000	      0.00000000	    183.64318266	   1029.03459211	     34.64362622	      1.78570648	      0.00000000	      0.93956159	      0.00000000	     10.14754267	      0.00000000
     15.01100000	      0.00000000	      0.00000000	      0.00000000	      0.00000000	      0.00000000	      0.00000000	      0.00000000	      0.00000000	      0.00000000	    184.17327555	   1009.33206796	     33.13727240	      1.78258074	      0.00000000	      0.93953861	      0.00000000	     10.00466193	      0.00000000
     15.01200000	      0.00000000	      0.00000000	      0.00000000	      0.00000000	      0.00000000	      0.00000000	      0.00000000	      0.00000000	      0.00000000	    184.70336843	    989.62954382	     31.63091857	      1.77945500	      0.00000000	      0.93951564	      0.00000000	      9.86178120	      0.00000000
     15.01300000	      0.00000000	      0.00000000	      0.00000000	      0.00000000	      0.00000000	      0.00000000	      0.00000000	      0.00000000	      0.00000000	    185.23346131	    969.92701967	     30.12456474	      1.77632925	      0.00000000	      0.93949267	      0.00000000	      9.71890046	      0.00000000
     15.01400000	      0.00000000	      0.00000000	      0.00000000	      0.00000000	      0.00000000	      0.00000000	      0.00000000	      0.00000000	      0.00000000	    185.41019946	    949.93007334	     28.67482289	      1.77333135	      0.00000000	      0.93945712	      0.00000000	      9.56265368	      0.00000000
     15.01500000	      0.00000000	      0.00000000	      0.00000000	      0.00000000	      0.00000000	      0.00000000	      0.00000000	      0.00000000	      0.00000000	    185.41026023	    929.78591592	     27.25338703	      1.77039738	      0.00000000	      0.93941528	      0.00000000	      9.39972389	      0.00000000
     15.01600000	      0.00000000	      0.00000000	      0.00000000	      0.00000000	      0.00000000	      0.00000000	      0.00000000	      0.00000000	      0.00000000	    185.41032101	    909.64175851	     25.83195117	      1.76746340	      0.00000000	      0.93937344	      0.00000000	      9.23679410	      0.00000000
     15.01700000	      0.00000000	      0.00000000	      0.00000000	      0.00000000	      0.00000000	      0.00000000	      0.00000000	      0.00000000	      0.00000000	    185.23983034	    889.40320374	     24.44123528	      1.76460412	      0.00000000	      0.93932521	      0.00000000	      9.06664390	      0.00000000
     15.01800000	      0.00000000	      0.00000000	      0.00000000	      0.00000000	      0.00000000	      0.00000000	      0.00000000	      0.00000000	      0.00000000	    184.72823677	    868.97585428	     23.11195933	      1.76189421	      0.00000000	      0.93926419	     -0.00000000	      8.88205291	      0.00000000
     15.01900000	      0.00000000	      0.00000000	      0.00000000	      0.00000000	      0.00000000	      0.00000000	      0.00000000	      0.00000000	      0.00000000	    184.21664321	    848.54850482	     21.78268338	      1.75918431	      0.00000000	      0.93920316	     -0.00000000	      8.69746192	      0.00000000
     15.02000000	      0.00000000	      0.00000000	      0.00000000	      0.00000000	      0.00000000	      0.00000000	      0.00000000	      0.00000000	      0.00000000	    183.70504965	    828.12115535	     20.45340743	      1.75647441	      0.00000000	      0.93914214	     -0.00000000	      8.51287092	      0.00000000
     15.02100000	      0.00000000	      0.00000000	      0.00000000	      0.00000000	      0.00000000	      0.00000000	      0.00000000	      0.00000000	      0.00000000	    182.70890261	    807.57505925	     19.22025509	      1.75401840	      0.00000000	      0.93906216	     -0.00000000	      8.30535144	      0.00000000
     15.02200000	      0.00000000	      0.00000000	      0.00000000	      0.00000000	      0.00000000	      0.00000000	      0.00000000	      0.00000000	      0.00000000	    181.71275558	    787.02896315	     17.98710275	      1.75156238	      0.00000000	      0.93898217	     -0.00000000	      8.09783197	      0.00000000
     15.02300000	      0.00000000	      0.00000000	      0.00000000	      0.00000000	      0.00000000	      0.00000000	      0.00000000	      0.00000000	      0.00000000	    180.71660854	    766.48286705	     16.75395041	      1.74910637	      0.00000000	      0.93890219	     -0.00000000	      7.89031249	      0.00000000
     15.02400000	      0.00000000	      0.00000000	      0.00000000	      0.00000000	      0.00000000	      0.00000000	      0.00000000	      0.00000000	      0.00000000	    179.42103707	    745.96929157	     15.58556805	      1.74683703	      0.00000000	      0.93881007	     -0.00000000	      7.66697764	      0.00000000
     15.02500000	      0.00000000	      0.00000000	      0.00000000	      0.00000000	      0.00000000	      0.00000000	      0.00000000	      0.00000000	      0.00000000	    177.97575339	    725.47197639	     14.44957068	      1.74466102	      0.00000000	      0.93871188	     -0.00000000	      7.43573510	      0.00000000
     15.02600000	      0.00000000	      0.00000000	      0.00000000	      0.00000000	      0.00000000	      0.00000000	      0.00000000	      0.00000000	      0.00000000	    176.53046971	    704.97466122	     13.31357331	      1.74248501	      0.00000000	      0.93861370	     -0.00000000	      7.20449257	      0.00000000
     15.02700000	      0.00000000	      0.00000000	      0.00000000	      0.00000000	      0.00000000	      0.00000000	      0.00000000	      0.00000000	      0.00000000	    174.94983661	    684.54944901	     12.20946964	      1.74040941	      0.00000000	      0.93850987	     -0.00000000	      6.96527414	      0.00000000
     15.02800000	      0.00000000	      0.00000000	      0.00000000	      0.00000000	      0.00000000	      0.00000000	      0.00000000	      0.00000000	      0.00000000	    173.09850470	    664.26844272	     11.16915338	      1.73853463	      0.00000000	      0.93839475	     -0.00000000	      6.71010393	      0.00000000
     15.02900000	      0.00000000	      0.00000000	      0.00000000	      0.00000000	      0.00000000	      0.00000000	      0.00000000	      0.00000000	      0.00000000	    171.24717278	    643.98743642	     10.12883713	      1.73665985	      0.00000000	      0.93827963	     -0.00000000	      6.45493371	      0.00000000
     15.03000000	      0.00000000	      0.00000000	      0.00000000	      0.00000000	      0.00000000	      0.00000000	      0.00000000	      0.00000000	      0.00000000	    169.39584086	    623.70643013	      9.08852087	      1.73478507	      0.00000000	      0.93816451	     -0.00000000	      6.19976349	      0.00000000
     15.03100000	      0.00000000	      0.00000000	      0.00000000	      0.00000000	      0.00000000	      0.00000000	      0.00000000	      0.00000000	      0.00000000	    167.18834169	    603.80610536	      8.14039216	      1.73322676	      0.00000000	      0.93803420	     -0.00000000	      5.92115092	      0.00000000
     15.03200000	      0.00000000	      0.00000000	      0.00000000	      0.00000000	      0.00000000	      0.00000000	      0.00000000	      0.00000000	      0.00000000	    164.98084251	    583.90578058	      7.19226345	      1.73166846	      0.00000000	      0.93790388	     -0.00000000	      5.64253835	      0.00000000
